<svg id="Ebene_1" data-name="Ebene 1" xmlns="http://www.w3.org/2000/svg" viewBox="0 0 62.34 20"><defs><style>.cls-1{fill:#25aae2;}.cls-2{fill:#fff;}</style></defs><rect class="cls-1" width="62.34" height="20"/><path class="cls-2" d="M18.57,8.78H13a.62.62,0,0,1-.61-.51.63.63,0,0,1,.58-.75c.93,0,1.87,0,2.81,0H24.2a.48.48,0,0,1,.38.15.66.66,0,0,1-.17,1.1.37.37,0,0,1-.15,0Z" transform="translate(0 0)"/><path class="cls-2" d="M17.19,10.29h4.28a.58.58,0,0,1,.56.5.64.64,0,0,1-.32.67,1.11,1.11,0,0,1-.37,0l-3.46,0H13a.61.61,0,0,1-.6-.44.66.66,0,0,1,.22-.74.62.62,0,0,1,.4-.13h4.2Z" transform="translate(0 0)"/><path class="cls-2" d="M15.82,4.75h2.06l.83,0a.61.61,0,0,1,.5.89.59.59,0,0,1-.58.34l-3.2,0C14.72,6,14,6,13.31,6l-.49,0a.5.5,0,0,1-.47-.37.62.62,0,0,1,.55-.88Z" transform="translate(0 0)"/><path class="cls-2" d="M26.2,2.12A1.41,1.41,0,0,0,25.67,2H11.31A2,2,0,0,0,9.58,3.85c0,2.88,0,5.76,0,8.64a2,2,0,0,0,1.59,1.81c.32,0,.64,0,1,.06h.31V18l.05,0a.67.67,0,0,1,.09-.14L16,14.48a.37.37,0,0,1,.3-.12H21l4.6,0a1.31,1.31,0,0,0,.44-.07,2,2,0,0,0,1.41-1.82c0-.29,0-.57,0-.88h0V6.15c0-.72,0-1.43,0-2.14A2,2,0,0,0,26.2,2.12Zm0,9.8c0,.16,0,.32,0,.49a.61.61,0,0,1-.63.62l-2.14,0H15.7a.33.33,0,0,0-.25.1l-1.57,1.58s-.05.08-.08.12l-.05,0V13H11.8a1.63,1.63,0,0,1-.31,0,.65.65,0,0,1-.6-.65c0-.59,0-1.19,0-1.78,0-2,0-4,0-6,0-.21,0-.43,0-.65a.63.63,0,0,1,.67-.69l1.79,0h11l1.12,0a.61.61,0,0,1,.66.65c0,.6,0,1.21,0,1.82Q26.18,8.85,26.17,11.92Z" transform="translate(0 0)"/><polygon class="cls-2" points="52.91 10.25 35.51 3.86 35.51 16.64 52.91 10.25"/></svg>