<svg id="Ebene_3" data-name="Ebene 3" xmlns="http://www.w3.org/2000/svg" viewBox="0 0 42.69 25"><defs><style>.cls-1{fill:#25aae2;}.cls-2{fill:#fff;}</style></defs><rect class="cls-1" width="42.69" height="25"/><path class="cls-2" d="M27.84,5l-.18.33-4.93,8.39a.42.42,0,0,0,0,.5Q24.48,17,26.2,19.75a2.09,2.09,0,0,1,.13.23l-.25,0c-1.09,0-2.19,0-3.29,0a.35.35,0,0,1-.35-.2l-3.51-5.63a.35.35,0,0,1,0-.4q2.51-4.27,5-8.55A.38.38,0,0,1,24.3,5h3.54Z" transform="translate(0 0)"/><path class="cls-2" d="M12.85,15.47c.35-.61.69-1.2,1-1.79.62-1.07,1.23-2.16,1.85-3.23a.36.36,0,0,0,0-.4c-.66-1.09-1.32-2.18-2-3.27-.05-.08-.09-.16-.15-.27l.25,0h3.29a.33.33,0,0,1,.33.19c.67,1.14,1.36,2.28,2,3.42a.26.26,0,0,1,0,.31L16.7,15.33a.31.31,0,0,1-.22.16H13Z" transform="translate(0 0)"/></svg>