<svg id="Ebene_2" data-name="Ebene 2" xmlns="http://www.w3.org/2000/svg" viewBox="0 0 42.69 25"><defs><style>.cls-1{fill:#25aae2;}.cls-2{fill:#fff;}</style></defs><rect class="cls-1" width="42.69" height="25"/><path class="cls-2" d="M21.38,11.23l.11-.13a3.15,3.15,0,0,1,2.62-1.36,6.4,6.4,0,0,1,1.64.19,2.8,2.8,0,0,1,2,2.31A9.13,9.13,0,0,1,28,14c0,1.87,0,3.75,0,5.62,0,.26-.08.34-.34.34-.8,0-1.6,0-2.4,0-.4,0-.4,0-.4-.39,0-1.62,0-3.24,0-4.87a5.27,5.27,0,0,0-.11-1.05,1.33,1.33,0,0,0-1.21-1.18,1.59,1.59,0,0,0-1.83.88,3.75,3.75,0,0,0-.26,1.28c0,1.65,0,3.3,0,4.94,0,.39,0,.39-.39.39H18.62c-.22,0-.31-.06-.31-.3q0-4.71,0-9.44c0-.23.08-.3.3-.3H21c.24,0,.32.08.31.32s0,.63,0,.94Z" transform="translate(0)"/><path class="cls-2" d="M16.4,15v4.6c0,.42,0,.42-.43.42H13.55c-.23,0-.31-.08-.31-.3,0-3.15,0-6.29,0-9.44,0-.23.09-.3.31-.3h2.52c.25,0,.33.08.33.33C16.39,11.85,16.4,13.41,16.4,15Z" transform="translate(0)"/><path class="cls-2" d="M13,6.8a1.81,1.81,0,1,1,1.81,1.84A1.82,1.82,0,0,1,13,6.8Z" transform="translate(0)"/></svg>