<svg id="Ebene_1" data-name="Ebene 1" xmlns="http://www.w3.org/2000/svg" viewBox="0 0 60 23.84"><defs><style>.cls-1{fill:#25aae2;}</style></defs><path class="cls-1" d="M59.79,15.13c-.54-1.59-1-3.2-1.61-4.79a2,2,0,0,0-.57-.83A39.67,39.67,0,0,0,39.35,1a45.74,45.74,0,0,0-9.24-1h-.23a45.66,45.66,0,0,0-9.24,1A39.71,39.71,0,0,0,2.37,9.51a2,2,0,0,0-.57.83C1.24,11.93.73,13.54.19,15.13A3,3,0,0,0,1,18.44c1.24,1.22,2.48,2.45,3.7,3.69a1.14,1.14,0,0,0,1.42.28q5.94-2.53,11.9-5a1.72,1.72,0,0,0,1-1c.89-2.27,1.82-4.52,2.7-6.78a1.92,1.92,0,0,1,1.6-1.36C25,8,26.66,7.78,28.35,7.7c.55,0,1.09,0,1.64,0s1.1,0,1.64,0c1.7.08,3.38.33,5.06.54a1.91,1.91,0,0,1,1.6,1.36c.89,2.26,1.81,4.51,2.7,6.78a1.72,1.72,0,0,0,1,1q6,2.51,11.91,5a1.12,1.12,0,0,0,1.41-.28q1.83-1.86,3.71-3.69A3,3,0,0,0,59.79,15.13Z" transform="translate(0.01 0)"/><polygon class="cls-1" points="25.91 19.41 25.91 23.84 34.09 23.84 34.09 19.41 37.81 19.41 30 13.44 22.18 19.41 25.91 19.41"/></svg>