<svg id="Ebene_1" data-name="Ebene 1" xmlns="http://www.w3.org/2000/svg" viewBox="0 0 32 20"><defs><style>.cls-1{fill:#0b212d;}.cls-2{fill:#fefeff;}.cls-2,.cls-3{stroke:#0b212d;stroke-miterlimit:10;stroke-width:0.51px;}.cls-3{fill:#cdd9e5;}.cls-4{fill:#3aaa35;}</style></defs><ellipse class="cls-1" cx="10.23" cy="10" rx="10.23" ry="10"/><path class="cls-2" d="M8.31,6.78,9.56,5.59c.47-.44.91-.91,1.4-1.32a3.56,3.56,0,0,1,4-.32,3.6,3.6,0,0,1,1.87,2.61,3.27,3.27,0,0,1-.9,2.89c-.77.78-1.56,1.55-2.36,2.31a3.58,3.58,0,0,1-4.82,0c-.21-.2-.4-.42-.6-.63s-.1-.2,0-.31.42-.4.62-.6A.74.74,0,0,1,9.55,10l1.1.38A1.27,1.27,0,0,0,12,10.14c.75-.72,1.49-1.44,2.22-2.17a1.23,1.23,0,0,0,0-1.73,1.41,1.41,0,0,0-1.41-.53,1.57,1.57,0,0,0-.76.48c-.27.27-.56.54-.83.82a.23.23,0,0,1-.3.07,4.16,4.16,0,0,0-2.63-.24Z"/><path class="cls-3" d="M12.38,9c-.27.27-.53.54-.8.79a.71.71,0,0,1-.75.13c-.3-.1-.59-.2-.88-.32A1.48,1.48,0,0,0,8.21,10c-.66.67-1.33,1.33-2,2a1.28,1.28,0,0,0,0,1.86,1.38,1.38,0,0,0,1.6.38,4.56,4.56,0,0,0,.74-.59c.22-.2.42-.43.65-.63a.25.25,0,0,1,.23-.06,4.57,4.57,0,0,0,2.61.27l.05,0-1,1c-.48.46-.94.93-1.43,1.39a3.33,3.33,0,0,1-1.94.87A3.41,3.41,0,0,1,5.36,16a3.57,3.57,0,0,1-1.78-2.86,3.24,3.24,0,0,1,.82-2.4c.47-.54,1-1,1.52-1.52s.74-.75,1.14-1.08a3.52,3.52,0,0,1,3.64-.5,4,4,0,0,1,1.52,1.19C12.28,8.85,12.33,8.94,12.38,9Z"/><path class="cls-4" d="M24.54,1.76,20.83,4.53a9.79,9.79,0,0,1-.19,11.21v2.5h7.81V7.33H32Z"/></svg>