<svg id="Ebene_1" data-name="Ebene 1" xmlns="http://www.w3.org/2000/svg" viewBox="0 0 68.7 25"><defs><style>.cls-1{fill:#25aae2;}.cls-2{fill:#fff;}</style></defs><rect class="cls-1" width="68.7" height="25"/><path class="cls-2" d="M33.64,4.3l.77.1a7.21,7.21,0,0,1,6.28,5.94,6.32,6.32,0,0,1-1.29,4.77c-.09.12-.09.19,0,.28l3.08,2.15a1.92,1.92,0,0,1,.93,1.65,2.22,2.22,0,0,1-3.26,1.71,2.38,2.38,0,0,1-.85-.75c-.68-1-1.37-1.93-2.06-2.9-.15-.21-.15-.21-.4-.09a8,8,0,0,1-7.09.18A6.62,6.62,0,0,1,25.61,12a6.2,6.2,0,0,1,1.81-5.28,7.56,7.56,0,0,1,5-2.34l.18,0Zm-.47,12.23a5.68,5.68,0,0,0,5.89-5.3,5.64,5.64,0,0,0-5.88-5.4,5.66,5.66,0,0,0-5.94,5.38A5.63,5.63,0,0,0,33.17,16.53Z" transform="translate(0 0.03)"/><path class="cls-2" d="M32.28,13.17a.7.7,0,0,1-.54-.2l-1.31-1.21a.65.65,0,0,1-.2-.81.74.74,0,0,1,1.08-.26c.25.19.47.41.7.62l.18.17c.08.08.15.07.24,0l.84-.73,1.58-1.37a.86.86,0,0,1,.9-.16.59.59,0,0,1,.2,1c-.5.47-1,.93-1.53,1.38l-1.5,1.3A.88.88,0,0,1,32.28,13.17Z" transform="translate(0 0.03)"/></svg>