<svg id="Ebene_2" data-name="Ebene 2" xmlns="http://www.w3.org/2000/svg" viewBox="0 0 60 23.84"><defs><style>.cls-1{fill:#e30613;}</style></defs><path class="cls-1" d="M59.8,15.13c-.54-1.59-1-3.2-1.61-4.79a2,2,0,0,0-.57-.83A39.72,39.72,0,0,0,39.36,1a45.81,45.81,0,0,0-9.24-1h-.24a45.81,45.81,0,0,0-9.24,1A39.72,39.72,0,0,0,2.38,9.51a2,2,0,0,0-.57.83C1.25,11.93.74,13.54.2,15.13A3,3,0,0,0,1,18.44c1.24,1.22,2.48,2.45,3.7,3.69a1.12,1.12,0,0,0,1.41.28q6-2.53,11.91-5a1.72,1.72,0,0,0,1-1c.89-2.27,1.81-4.52,2.7-6.78a1.92,1.92,0,0,1,1.6-1.36C25,8,26.67,7.78,28.36,7.7c.55,0,1.09,0,1.64,0s1.09,0,1.64,0c1.69.08,3.38.33,5.06.54A1.92,1.92,0,0,1,38.3,9.6c.89,2.26,1.81,4.51,2.7,6.78a1.72,1.72,0,0,0,1,1q6,2.51,11.91,5a1.12,1.12,0,0,0,1.41-.28c1.22-1.24,2.46-2.47,3.7-3.69A3,3,0,0,0,59.8,15.13Z" transform="translate(0 0)"/><polygon class="cls-1" points="34.09 17.87 34.09 13.44 25.91 13.44 25.91 17.87 22.18 17.87 30 23.84 37.81 17.87 34.09 17.87"/></svg>