<svg id="Ebene_2" data-name="Ebene 2" xmlns="http://www.w3.org/2000/svg" viewBox="0 0 26.63 20"><defs><style>.cls-1{fill:#25aae2;}.cls-2{fill:#fff;}</style></defs><rect class="cls-1" width="26.63" height="20"/><path class="cls-2" d="M14.91,8.19a5.41,5.41,0,0,0-4,4.35A5.38,5.38,0,0,0,13.11,18h-4a.57.57,0,0,1-.62-.61v-6a2.17,2.17,0,0,0,0-.36.48.48,0,0,0-.13-.16c0,.05-.14.08-.16.14a1.42,1.42,0,0,0-.08.4c0,.31,0,.62,0,.92,0,.94,0,1.87,0,2.8a1.38,1.38,0,0,1-.13.6,1,1,0,0,1-1.6.24,1.08,1.08,0,0,1-.34-.79c0-1.47,0-2.95,0-4.42a2.87,2.87,0,0,1,.75-2,1.87,1.87,0,0,1,1.43-.63h6.41Z" transform="translate(0 0)"/><path class="cls-2" d="M17.2,18a4.48,4.48,0,1,1,4.49-4.48A4.47,4.47,0,0,1,17.2,18Zm2-1.71-4.77-4.77a3.41,3.41,0,0,0,4.77,4.77Zm.77-.76a3.42,3.42,0,0,0-4.78-4.77Z" transform="translate(0 0)"/><path class="cls-2" d="M11.33,7.52A2.76,2.76,0,1,1,14.09,4.8,2.77,2.77,0,0,1,11.33,7.52Z" transform="translate(0 0)"/></svg>