<svg id="Ebene_1" data-name="Ebene 1" xmlns="http://www.w3.org/2000/svg" viewBox="0 0 42.69 25"><defs><style>.cls-1{fill:#25aae2;}.cls-2{fill:#fff;}</style></defs><rect class="cls-1" width="42.69" height="25"/><path class="cls-2" d="M20.75,20h0Z" transform="translate(0)"/><path class="cls-2" d="M13.49,9.14a6.47,6.47,0,0,1,.66-1.06,7.53,7.53,0,0,1,2.9-2.35A7.67,7.67,0,0,1,21,5a7.44,7.44,0,0,1,3.9,1.5,1.71,1.71,0,0,1,.26.21l.23.2L23.26,9.07a6,6,0,0,0-.55-.41A4,4,0,0,0,20.92,8,4.48,4.48,0,0,0,17.1,9.34a4.25,4.25,0,0,0-1,1.66l0,.06L16,11l-.64-.49L13.91,9.45Z" transform="translate(0)"/><path class="cls-2" d="M20.75,20H20l-.76-.08A7.71,7.71,0,0,1,16,18.65a7.9,7.9,0,0,1-1-.77,7.64,7.64,0,0,1-1.1-1.31c-.15-.23-.28-.47-.41-.7l0,0,1.4-1.07,1.1-.83a6.14,6.14,0,0,0,.25.59,4.16,4.16,0,0,0,1,1.3,4.57,4.57,0,0,0,2,1.08A4.79,4.79,0,0,0,20.5,17a4.93,4.93,0,0,0,2.1-.52,3.79,3.79,0,0,0,.34-.2l.82.62,1.63,1.24c-.19.15-.36.31-.56.45a6.43,6.43,0,0,1-1.76.92,7.84,7.84,0,0,1-1.74.39Z" transform="translate(0)"/><path class="cls-2" d="M25.39,18.18l-1.63-1.24-.82-.62.28-.21a3.47,3.47,0,0,0,1.24-2v0H20.34V11.15h7.12c.06,0,.09,0,.1.08a8.4,8.4,0,0,1,.1,1.94,8.13,8.13,0,0,1-.3,1.84,6.65,6.65,0,0,1-1.4,2.6c-.17.19-.35.36-.52.54C25.43,18.17,25.41,18.17,25.39,18.18Z" transform="translate(0)"/><path class="cls-2" d="M16,13.94l-1.1.83-1.4,1.07,0,0-.25-.52a6.87,6.87,0,0,1-.5-1.84A7.41,7.41,0,0,1,12.69,12a7.22,7.22,0,0,1,.51-2.25c.09-.21.19-.42.29-.63l.42.31,1.43,1.09L16,11l.05,0c-.06.25-.13.5-.18.76a4,4,0,0,0,0,1.15,4.38,4.38,0,0,0,.2.94A0,0,0,0,1,16,13.94Z" transform="translate(0)"/></svg>